<svg width="51" height="82" viewBox="0 0 51 82" fill="none" xmlns="http://www.w3.org/2000/svg">
<g clip-path="url(#clip0)">
<path d="M5.94238 24.5156L5.58322 22.9337L31.2057 17.1253L36.9358 20.5L45.2372 7.96637L46.6003 8.86684L37.4419 22.6822L30.9281 18.8532L5.94238 24.5156Z" fill="#E94E1B"/>
<path d="M43.621 8.45312L49.0981 3.61813L46.7881 10.5299L43.621 8.45312Z" fill="#E94E1B"/>
<path d="M49.7266 26.0651L49.6613 28.4988C48.1268 28.4988 46.5922 28.4258 45.0495 28.4258L45.1148 26.0975L44.723 25.911C44.3969 25.7312 44.1118 25.4863 43.8857 25.1917C43.6595 24.8971 43.4971 24.5592 43.4088 24.1992C43.4088 24.0127 43.0496 21.587 43.0333 21.4735L44.2169 21.5384L44.2903 18.8937C46.7963 18.8937 48.5186 18.9911 50.8204 19.1452L50.9837 22.1549C51.0735 24.3858 50.6653 25.3025 49.7266 26.0651Z" fill="#F2C799"/>
<path d="M45.6045 21.5384C45.5965 21.7948 45.4909 22.0386 45.3092 22.2208C45.1274 22.4029 44.8829 22.5098 44.625 22.52H44.4536C44.2087 22.5132 43.9755 22.4147 43.8006 22.2442C43.6294 22.0675 43.533 21.8323 43.5312 21.5871L44.0781 13.0366C44.078 12.9191 44.1019 12.8028 44.1483 12.6948C44.1947 12.5867 44.2627 12.4892 44.3482 12.408C44.4337 12.3269 44.5348 12.2638 44.6455 12.2226C44.7563 12.1815 44.8742 12.1631 44.9923 12.1686H45.1148C45.3312 12.1686 45.5389 12.2541 45.6919 12.4062C45.845 12.5583 45.931 12.7647 45.931 12.9798L45.6045 21.5384Z" fill="#F2C799"/>
<path d="M47.4329 20.281C47.4348 20.5238 47.3444 20.7585 47.1799 20.9381C47.1043 21.0236 47.0115 21.0923 46.9074 21.1398C46.8033 21.1874 46.6904 21.2126 46.5759 21.2139H46.4208C46.1912 21.1972 45.9774 21.092 45.8248 20.9207C45.6723 20.7494 45.5932 20.5256 45.6045 20.2972V17.904C45.604 17.6741 45.6882 17.4519 45.8412 17.2794C45.9125 17.201 45.9993 17.1381 46.0963 17.0948C46.1932 17.0516 46.2982 17.0288 46.4044 17.0279H46.7228C46.8243 17.0331 46.9238 17.0582 47.0155 17.1019C47.1072 17.1456 47.1892 17.207 47.2568 17.2825C47.3244 17.358 47.3762 17.446 47.4092 17.5416C47.4423 17.6372 47.4559 17.7383 47.4493 17.8391L47.4329 20.281Z" fill="#FFD2A1"/>
<path d="M49.2287 20.4675C49.2354 20.7015 49.1493 20.9287 48.9889 21.1002C48.8286 21.2717 48.6069 21.3737 48.3716 21.3842H48.2084C48.0966 21.3807 47.9868 21.3544 47.8857 21.307C47.7846 21.2595 47.6944 21.1919 47.6207 21.1084C47.4582 20.9314 47.3705 20.699 47.3758 20.4594V18.5855C47.3691 18.4749 47.3853 18.3642 47.4233 18.2601C47.4613 18.1559 47.5204 18.0607 47.5968 17.9801C47.6733 17.8995 47.7656 17.8354 47.868 17.7916C47.9703 17.7478 48.0806 17.7254 48.1921 17.7256H48.5186C48.6169 17.7266 48.7139 17.7489 48.8027 17.7909C48.8915 17.833 48.97 17.8937 49.0328 17.9689C49.1747 18.1239 49.2507 18.3274 49.245 18.5368L49.2287 20.4675Z" fill="#FFD2A1"/>
<path d="M50.8041 20.4594C50.7957 20.6495 50.7137 20.8291 50.5753 20.9606C50.4369 21.0921 50.2528 21.1654 50.0613 21.1652H49.9225C49.7305 21.1631 49.547 21.0864 49.4112 20.9514C49.2754 20.8165 49.1982 20.634 49.196 20.4432V19.0073C49.1982 18.9189 49.2178 18.8317 49.2538 18.7508C49.2898 18.67 49.3415 18.5969 49.406 18.5359C49.4704 18.4749 49.5463 18.4271 49.6293 18.3952C49.7124 18.3633 49.8009 18.348 49.8899 18.3502H50.1674C50.2506 18.3491 50.3332 18.3645 50.4104 18.3954C50.4876 18.4263 50.5579 18.4722 50.6171 18.5303C50.6763 18.5884 50.7234 18.6576 50.7555 18.7339C50.7876 18.8102 50.8041 18.8921 50.8041 18.9749V20.4594Z" fill="#FFD2A1"/>
<path d="M46.0371 20.9705L45.3841 21.6763C45.3319 21.734 45.293 21.8024 45.2705 21.8768C45.2479 21.9511 45.2421 22.0294 45.2535 22.1062L45.3025 22.4307C46.0552 22.6056 46.7108 23.0628 47.1322 23.7069C47.5535 24.3509 47.7081 25.1319 47.5635 25.8866L49.7266 26.0651L49.996 28.4988C48.3635 28.4988 46.6575 28.4177 44.9842 28.4177L45.0739 27.0548L45.1148 26.0894L44.723 25.9028C44.3969 25.7231 44.1118 25.4782 43.8857 25.1836C43.6595 24.889 43.4971 24.5511 43.4088 24.1911C43.4088 24.0045 43.0496 21.5789 43.0333 21.4654C43.0348 21.3019 43.099 21.1452 43.2129 21.0273L44.2577 19.8997L44.9678 19.1371C45.0774 19.032 45.2237 18.9733 45.376 18.9733C45.5282 18.9733 45.6745 19.032 45.7841 19.1371L45.931 19.2669C46.0541 19.377 46.1541 19.5101 46.2252 19.6587C46.2964 19.8072 46.3373 19.9683 46.3456 20.1326C46.354 20.2969 46.3296 20.4613 46.2738 20.6162C46.2181 20.7711 46.1321 20.9136 46.0208 21.0354L46.0371 20.9705Z" fill="#FFD2A1"/>
<path d="M49.0247 45.186C48.6165 46.2974 35.9645 51.0594 32.977 52.1627L32.3566 52.3979C32.2236 52.4112 32.0896 52.4112 31.9566 52.3979C31.3934 52.3979 30.4955 52.2032 29.8507 52.1546C29.379 52.1154 28.9101 52.0477 28.4467 51.9517C26.6315 51.5704 24.9452 50.7324 23.5491 49.518C23.4844 48.8263 23.5257 48.1288 23.6716 47.4494C23.7694 47.0268 23.906 46.614 24.0797 46.2163C24.3982 45.4596 24.8643 44.7731 25.451 44.1963C25.8347 43.7988 26.1122 42.7117 26.3734 42.4927C26.9938 41.9816 41.8824 39.2477 41.8824 39.2477H41.9314L47.0167 43.4905L47.735 44.0908L49.0247 45.186Z" fill="#005B6B"/>
<path d="M50.5266 30.1294L44.323 29.594L44.5434 26.13L50.8368 26.5762L50.5266 30.1294Z" fill="#EDEDED"/>
<path d="M51 28.4663C50.951 28.9774 50.8939 29.5372 50.8367 30.0888C50.4694 34.072 49.9715 39.4262 49.5144 42.736C49.4777 43.5674 49.3125 44.3883 49.0246 45.1697L47.6452 44.2855L47.1472 43.961L44.1842 41.4624L41.8334 39.5073C41.8334 39.4262 41.8334 39.3369 41.8905 39.2396C41.964 38.8177 42.0701 38.3067 42.1925 37.7388C42.8537 34.6155 43.923 30.4376 44.0944 28.1337C46.9432 28.296 49.0736 28.2311 51 28.4663Z" fill="#005B6B"/>
<path d="M49.6777 29.2046C49.7393 29.227 49.7959 29.2612 49.8442 29.3053C49.8926 29.3494 49.9317 29.4026 49.9593 29.4617C49.987 29.5208 50.0027 29.5848 50.0055 29.65C50.0083 29.7151 49.9981 29.7802 49.9756 29.8414C49.9531 29.9027 49.9187 29.9589 49.8743 30.007C49.8299 30.055 49.7764 30.0939 49.7169 30.1214C49.6574 30.1489 49.593 30.1645 49.5275 30.1672C49.4619 30.17 49.3965 30.1599 49.3348 30.1375C49.2097 30.0918 49.1078 29.9988 49.0512 29.8788C48.9947 29.7588 48.9881 29.6215 49.0328 29.4967C49.0555 29.4351 49.0903 29.3787 49.1351 29.3307C49.1799 29.2826 49.2338 29.2439 49.2938 29.2167C49.3538 29.1895 49.4186 29.1745 49.4845 29.1724C49.5504 29.1703 49.6161 29.1813 49.6777 29.2046Z" fill="white"/>
<path d="M49.5797 30.9569C49.7049 31.0026 49.8068 31.0956 49.8633 31.2156C49.9199 31.3356 49.9265 31.4729 49.8817 31.5978C49.8155 31.6833 49.7233 31.7454 49.6188 31.7749C49.5144 31.8044 49.4031 31.7997 49.3015 31.7615C49.1999 31.7233 49.1134 31.6536 49.0547 31.5628C48.996 31.4719 48.9683 31.3647 48.9757 31.257C49.0215 31.1419 49.1085 31.0476 49.22 30.9922C49.3314 30.9368 49.4595 30.9242 49.5797 30.9569Z" fill="white"/>
<path d="M6.32603 82H29.6548C29.2548 77.3678 28.7161 44.4396 28.7161 44.4396L25.451 43.9123L15.509 42.3304C15.509 42.3304 6.26073 77.8059 6.32603 82Z" fill="white"/>
<path d="M17.5741 40.8702L18.3904 32.6605C21.9166 33.0742 26.6428 33.5447 27.4753 33.4717C27.4753 33.4717 26.9284 39.4505 26.9203 42.0303C27.4753 48.7636 19.6556 48.5121 17.5741 40.8702Z" fill="#F2C799"/>
<path d="M15.509 42.3304L7.14229 46.2811C6.89741 48.9339 6.75865 51.611 6.52193 54.4908C5.47712 67.1381 4.94655 77.8059 5.01185 82H20.8718C20.7004 65.5399 20.1535 49.9074 15.9742 42.4034L15.509 42.3304Z" fill="#005B6B"/>
<path d="M35.4176 81.9351L29.2385 82.0162L28.4957 53.7527L28.4467 51.9761L28.2508 44.3829L28.7161 44.4559L32.1688 46.5489L32.6749 46.8572C32.6749 47.3277 32.7729 48.8366 32.9035 50.9864C32.9035 51.3649 32.928 51.7624 32.9769 52.1789C33.0259 52.5953 33.0504 52.9928 33.0504 53.3714C33.0504 53.7608 33.0994 54.1826 33.132 54.5801C33.3524 58.0685 33.6381 62.295 33.9075 66.3918C33.9619 67.1165 34.0109 67.8304 34.0544 68.5335C34.0952 69.1338 34.1442 69.7422 34.1932 70.3344C34.6176 75.5669 35.2788 80.3126 35.4176 81.9351Z" fill="#005B6B"/>
<path d="M23.5247 49.9966L25.6633 49.7776L26.3652 45.5591L22.7819 45.6971L23.5247 49.9966Z" fill="#E94E1B"/>
<path d="M24.8552 45.5916L27.7937 48.9501C28.2426 46.9139 28.8304 45.2346 28.61 43.9934L26.9366 42.1844C27.0434 42.9044 26.8939 43.6388 26.5139 44.2609C26.1339 44.883 25.5472 45.3536 24.8552 45.5916Z" fill="#DADADA"/>
<path d="M24.8552 45.5916L21.2228 49.7776C18.774 47.3439 16.1701 44.6668 15.509 42.3304L17.6639 39.986C17.6557 42.0871 22.0391 45.7052 24.8552 45.5916Z" fill="#DADADA"/>
<path d="M23.5246 49.9966L25.6633 49.7776L26.7489 69.2392L24.5776 72.6383L22.2513 69.8963L23.5246 49.9966Z" fill="#CF4518"/>
<path d="M20.4882 66.8299C18.6761 60.3967 14.1948 48.5526 14.1948 48.5526C14.1948 48.5526 17.0517 47.0762 16.8476 46.849L13.7132 46.9626L14.2846 42.9064L17.1415 40.562C19.427 47.9848 20.6841 58.612 20.4882 66.8299Z" fill="#006F82"/>
<path d="M28.863 66.6271C30.6751 60.202 31.524 47.1573 31.524 47.1573C31.524 47.1573 28.8304 46.1676 29.0263 45.9486L31.3036 45.6728L28.8548 41.7626L26.8224 41.2272C27.5733 48.6743 28.6671 58.4092 28.863 66.6271Z" fill="#006F82"/>
<path d="M15.4029 36.5706C14.5686 35.4442 13.997 34.1473 13.7295 32.774C12.0154 24.9131 16.7823 24.8888 19.6964 24.1668C23.1329 23.4691 26.9203 24.978 28.4059 30.097C28.38 30.4374 28.3337 30.776 28.2671 31.111L30.1119 33.7394C30.1839 33.8405 30.2331 33.9559 30.2561 34.0777C30.2791 34.1994 30.2753 34.3247 30.2451 34.4448C30.2149 34.565 30.1589 34.6773 30.0809 34.774C30.003 34.8706 29.905 34.9494 29.7936 35.005L29.0916 35.3943C29.2058 35.9217 29.8425 38.1444 29.8425 38.1444C30.1201 39.483 30.0629 41.6814 28.21 41.9573C22.9941 42.7685 20.4555 40.8783 19.6964 36.3273C18.4557 36.5057 16.162 37.609 15.4029 36.5706Z" fill="#FFD2A1"/>
<path d="M17.1415 39.8805C21.4513 39.9535 18.2271 34.4209 18.2271 34.4209C18.2271 34.4209 19.6392 35.3457 20.2025 35.7675C20.7882 35.6667 21.3685 35.5367 21.9411 35.3781C20.9208 30.1943 18.676 26.6086 26.4224 26.3247C27.81 25.7082 25.2878 21.3842 18.6597 23.4205C14.7988 24.613 12.048 27.4361 12.5051 31.4355C12.8153 33.9422 13.4765 37.2115 17.1415 39.8805Z" fill="#3C3C3B"/>
<path d="M17.3701 34.7291C17.6802 35.946 19.076 37.0979 19.8841 36.8951C20.6922 36.6923 20.4882 35.6458 20.1862 34.4614C19.9903 33.6502 19.7535 32.5307 18.8067 32.4982C17.9578 32.4495 16.9129 32.9363 17.3701 34.7291Z" fill="#FFD2A1"/>
<path opacity="0.2" d="M10.44 68.355L15.509 80.0774L32.0138 82H5.01184L5.46078 56.2675L12.8969 54.71L10.44 68.355Z" fill="#1D1D1B"/>
<path d="M0 69.4096C0.9387 64.0879 2.31818 56.5839 3.52625 51.108C3.93264 49.4521 4.84856 47.9633 6.14645 46.849C7.77897 45.5511 9.64004 46.0378 11.044 47.5792C11.7685 48.3403 12.3301 49.2396 12.6949 50.2226C13.0597 51.2056 13.2201 52.252 13.1663 53.2984C13.0112 55.2778 9.19926 67.633 8.75032 68.9796L13.9091 81.9594H4.46495C4.40781 81.7404 0 69.6611 0 69.4096Z" fill="#005B6B"/>
<path d="M38.4133 10.9517C38.4133 9.11021 37.0419 8.11239 35.7033 7.14701L35.4421 6.95231V2.57974C35.7831 2.65217 36.0846 2.84889 36.287 3.13116C36.4895 3.41343 36.5782 3.7608 36.5359 4.10487V4.34013H38.4051V4.24278C38.4051 2.08488 36.9195 1.42778 35.4502 1.29798V0H34.283V1.28987C32.83 1.41156 31.3526 2.10111 31.3363 4.20222C31.3363 6.04373 32.7076 7.04155 34.0463 8.00693L34.283 8.11239V12.5174C33.9412 12.4522 33.6365 12.2617 33.4293 11.9838C33.2222 11.7058 33.1277 11.3606 33.1647 11.0166V10.392H31.2873V10.8949C31.2873 13.0366 32.7892 13.7018 34.2666 13.8316V14.8457H35.4502V13.856C36.8787 13.7424 38.3643 13.1015 38.4133 10.9517ZM33.3606 4.05619C33.3351 3.75054 33.4116 3.44505 33.5783 3.18696C33.7451 2.92887 33.9927 2.73257 34.283 2.62841V5.98694C34.0005 5.74828 33.7723 5.45278 33.6133 5.11995C33.4543 4.78712 33.3682 4.42455 33.3606 4.05619ZM35.4012 12.4931V9.06965C35.6941 9.31136 35.9321 9.61202 36.0996 9.95181C36.267 10.2916 36.3601 10.6628 36.3726 11.041C36.4114 11.3613 36.3353 11.685 36.1576 11.9551C35.9799 12.2251 35.7121 12.4243 35.4012 12.5174V12.4931Z" fill="#005B6B"/>
<path opacity="0.2" d="M50.8368 30.1294C50.4694 34.072 49.9715 39.4262 49.5144 42.736C49.4777 43.5674 49.3126 44.3883 49.0247 45.1698C48.6165 46.2812 35.9645 51.0431 32.977 52.1464C32.977 52.525 33.0015 52.9225 33.0504 53.3389C33.0504 53.7283 33.0994 54.1502 33.1321 54.5477C33.3524 58.036 33.6381 62.2626 33.9075 66.3593C33.9619 67.084 34.0109 67.7979 34.0544 68.501C34.0952 69.1013 34.1442 69.7097 34.1932 70.3019C34.1932 70.375 34.1932 70.4398 34.1932 70.5047L31.9566 52.406L31.8342 51.4325L32.9035 50.9701L47.5962 44.5938L47.6615 44.3017L47.7105 44.0827L50.8368 30.1294Z" fill="#1D1D1B"/>
</g>
<defs>
<clipPath id="clip0">
<rect width="51" height="82" fill="white"/>
</clipPath>
</defs>
</svg>
