<svg width="72" height="73" viewBox="0 0 72 73" fill="none" xmlns="http://www.w3.org/2000/svg">
<g clip-path="url(#clip0)">
<path d="M9.89 63.39L0 60.79C1.58253 51.6408 3.94788 42.6444 7.07 33.9L17 36.5L9.89 63.39Z" fill="white"/>
<path d="M45.94 63.39L55.83 60.79C54.2475 51.6408 51.8821 42.6444 48.76 33.9L38.87 36.5L45.94 63.39Z" fill="white"/>
<path d="M55.83 60.48V60.56L55.71 60.83C55.36 61.63 54.99 62.41 54.61 63.19C54.17 64.09 53.71 64.99 53.24 65.86C52.03 68.11 50.7 70.32 49.24 72.49H37.69C37.81 72.14 37.92 71.79 38.05 71.49C39.33 67.7741 41.0953 64.2436 43.3 60.99C43.76 60.31 44.3 59.64 44.75 58.99L45.55 57.99C45.67 57.85 45.79 57.73 45.9 57.59C46.55 56.83 47.23 56.11 47.9 55.42L55.73 60.51L55.83 60.48Z" fill="white"/>
<path d="M46.54 50.8C46.0853 53.0103 45.874 55.2637 45.91 57.52C45.91 59.45 46 61.4 46.08 63.36C46.16 64.97 46.23 66.59 46.24 68.19C46.2494 69.6259 46.1826 71.0612 46.04 72.49H9.79C9.61779 70.6654 9.55767 68.832 9.61 67C9.61 65.78 9.69 64.55 9.75 63.33C9.84 61.33 9.94 59.42 9.93 57.49C9.95776 55.2335 9.7432 52.9806 9.29 50.77C8.47 47.09 8.14 42.39 7.07 33.9C11.63 32 17.62 29.4 18.6 28.46C20.1046 28.8998 21.6548 29.1649 23.22 29.25C25.06 29.42 26.89 29.53 27.89 29.63C29.89 29.42 35.24 29.21 37.17 28.46C38.17 29.4 44.17 32 48.7 33.9C47.69 42.42 47.37 47.12 46.54 50.8Z" fill="white"/>
<path d="M26.61 39.2L25.69 34.83L27.92 34.77L30.14 34.83L29.22 39.2H26.61Z" fill="#005B6B"/>
<path d="M26.61 39.2L24.45 61.92L27.92 64.99L31.39 61.92L29.22 39.2H26.61Z" fill="#006F82"/>
<path opacity="0.05" d="M30.75 72.49H11.45H9.79C9.61779 70.6654 9.55768 68.832 9.61 67C10.0064 66.8133 10.3521 66.5342 10.6184 66.1862C10.8846 65.8382 11.0635 65.4314 11.14 65C11.14 65 11.14 61.13 11.23 59.13C11.23 58.8 11.23 58.52 11.23 58.31C11.225 58.2568 11.225 58.2032 11.23 58.15C11.41 52.93 11.85 41.27 12.1 41.27C12.17 42.88 12.24 44.47 12.32 46.07C12.42 48.13 12.53 50.2 12.78 52.26C13.0244 54.7353 13.6204 57.163 14.55 59.47C14.8752 60.2387 15.2597 60.9809 15.7 61.69C16.5757 63.2351 17.7676 64.5781 19.1978 65.6309C20.6281 66.6838 22.2645 67.4229 24 67.8C21.28 67.41 18.54 67.03 15.81 66.66L14.53 66.48C15.0959 67.006 15.7122 67.4749 16.37 67.88C20.52 70.49 26 70.87 30.75 72.49Z" fill="#1D1D1B"/>
<path opacity="0.05" d="M54.58 63.19C54.14 64.09 53.68 64.99 53.21 65.86C52 68.11 50.67 70.32 49.21 72.49H45.06H36C36.7358 72.2613 37.4335 71.9243 38.07 71.49C40.3052 69.7279 41.8773 67.2604 42.53 64.49C42.8646 63.3372 43.1284 62.165 43.32 60.98C43.39 60.58 43.44 60.18 43.5 59.76C43.68 58.31 43.78 56.84 43.83 55.4C43.8987 51.3922 43.7117 47.384 43.27 43.4C44.3761 48.2071 45.1446 53.0857 45.57 58C45.57 58.07 45.57 58.15 45.57 58.23C45.57 58.72 45.64 60.51 45.64 62.4C45.64 64.57 45.69 66.89 45.71 67.49C45.8233 67.7854 46.0009 68.0519 46.23 68.27C47.84 69.74 51 66.69 54.58 63.19Z" fill="#1D1D1B"/>
<path d="M21.58 23.44V25.36V27.42V28.34L21.69 34.94L25.61 34.86H27.72H28H29.94L33.94 34.78L34.12 28.42V27.61L34.18 25.56V23.87L21.58 23.44Z" fill="#F2C799"/>
<path d="M27.82 1.15001C33.5 1.13001 38 4.87001 37.61 11.6C37.562 12.3753 37.4652 13.1469 37.32 13.91C38.58 13.19 39.69 14.44 39.24 16.36C38.93 17.7 38.24 19.52 37.53 19.79C36.63 20.12 36.36 19.56 36.31 19.54C35.91 21.48 35.74 23.22 35.05 24.25C34.4342 25.2283 33.7666 26.173 33.05 27.08C31.71 28.65 30.61 29.08 28.05 29.08C25.5 29.08 24.39 28.72 23.05 27.17C22.3096 26.2691 21.6154 25.3312 20.97 24.36C20.27 23.36 20.08 21.61 19.66 19.67C19.5162 19.8452 19.3172 19.9663 19.0955 20.0136C18.8739 20.0608 18.6427 20.0313 18.44 19.93C17.69 19.67 17.01 17.86 16.68 16.52C16.21 14.61 17.3 13.35 18.57 14.05C18.4144 13.2876 18.3075 12.516 18.25 11.74C17.67 5.00001 22.15 1.20001 27.82 1.15001Z" fill="#FFD2A1"/>
<path d="M36 3.11001C38.18 5.65001 38.87 8.48001 38 13.7C37.14 14.18 36.69 14.82 36.37 17.42C35.75 17.59 35.48 17.63 34.92 17.83C38.33 4.00001 33 3.73001 31.49 3.44001C29.0609 3.21665 26.6158 3.23339 24.19 3.49001C22.72 3.79001 17.36 4.11001 20.93 17.92C20.36 17.73 20.09 17.69 19.47 17.53C19.11 14.93 18.65 14.3 17.79 13.83C16.87 8.62001 17.79 5.99001 19.67 3.21001C22.27 -0.649994 32.1 -1.43999 36 3.11001Z" fill="#3C3C3B"/>
<path d="M24.44 1.18001C23.7316 1.21408 23.0434 1.42741 22.44 1.80001C21.56 2.28001 19.33 5.52001 19.79 6.28001C21.69 9.38001 27.55 10.28 31.68 10.37C31.0615 9.95279 30.5812 9.36103 30.3 8.67001C32.5556 9.65582 35.0768 9.85652 37.46 9.24001C36.873 7.159 35.8119 5.24224 34.36 3.64001C33.0294 2.48605 31.4004 1.73049 29.66 1.46001C27.9327 1.20221 26.1849 1.10846 24.44 1.18001Z" fill="#3C3C3B"/>
<path d="M21.81 38.6C19.6746 35.7432 18.3575 32.3587 18 28.81L21.65 26.81C22.0652 28.5144 22.8404 30.1102 23.9236 31.4901C25.0068 32.87 26.3729 34.002 27.93 34.81L21.81 38.6Z" fill="#DADADA"/>
<path d="M34 38.6C36.1318 35.7412 37.4486 32.3578 37.81 28.81L34.17 26.81C33.753 28.5137 32.9771 30.1086 31.894 31.4883C30.811 32.8679 29.4459 34.0004 27.89 34.81L34 38.6Z" fill="#DADADA"/>
<path d="M18.55 19.88L17.77 20.03C16.66 20.26 15.51 14.7 16.67 14.46L17.45 14.31C18.36 14.13 19.42 19.71 18.55 19.88Z" fill="#575756"/>
<path d="M17.78 17C18 17.89 17.69 18.73 17.07 18.88C16.45 19.03 15.78 18.45 15.56 17.56C15.34 16.67 15.65 15.84 16.27 15.68C16.89 15.52 17.56 16.12 17.78 17Z" fill="#575756"/>
<path d="M37.17 19.88L38 20C39.11 20.23 40.26 14.67 39.1 14.43L38.32 14.28C37.36 14.13 36.3 19.71 37.17 19.88Z" fill="#575756"/>
<path d="M37.94 17C37.72 17.89 38.03 18.73 38.65 18.88C39.27 19.03 39.94 18.45 40.16 17.56C40.38 16.67 40.07 15.84 39.45 15.68C38.83 15.52 38.16 16.12 37.94 17Z" fill="#575756"/>
<path d="M25.88 25.75C18.15 25.75 17.44 18.38 17.44 18.31L18.21 18.24C18.2845 19.2054 18.549 20.1466 18.9883 21.0095C19.4276 21.8724 20.0331 22.64 20.77 23.2681C21.5069 23.8963 22.3607 24.3727 23.2822 24.6699C24.2038 24.9671 25.175 25.0793 26.14 25V25.77L25.88 25.75Z" fill="#575756"/>
<path d="M30.75 25.37C30.7474 25.6679 30.6271 25.9528 30.4155 26.1626C30.2039 26.3723 29.918 26.49 29.62 26.49H26.92C26.623 26.49 26.3381 26.372 26.128 26.1619C25.918 25.9519 25.8 25.667 25.8 25.37C25.7987 25.2221 25.8267 25.0754 25.8824 24.9383C25.9381 24.8013 26.0204 24.6766 26.1245 24.5716C26.2286 24.4665 26.3525 24.3831 26.4891 24.3262C26.6256 24.2693 26.7721 24.24 26.92 24.24H29.62C29.9197 24.24 30.2071 24.359 30.419 24.571C30.6309 24.7829 30.75 25.0703 30.75 25.37Z" fill="#575756"/>
<path d="M26.5 16.2V14.69C26.5014 14.6747 26.4996 14.6593 26.4947 14.6448C26.4898 14.6303 26.4819 14.617 26.4715 14.6057C26.4612 14.5944 26.4486 14.5854 26.4345 14.5792C26.4205 14.5731 26.4053 14.5699 26.39 14.57H22C21.9284 14.57 21.8597 14.5984 21.8091 14.6491C21.7584 14.6997 21.73 14.7684 21.73 14.84V16.18C21.73 16.7104 21.9407 17.2191 22.3158 17.5942C22.6909 17.9693 23.1996 18.18 23.73 18.18H24.48C24.7426 18.1826 25.0032 18.1335 25.2469 18.0354C25.4906 17.9374 25.7125 17.7922 25.9001 17.6084C26.0877 17.4245 26.2372 17.2055 26.3401 16.9639C26.4431 16.7222 26.4974 16.4626 26.5 16.2ZM27.24 14.69V16.2C27.2453 16.565 27.1781 16.9273 27.0424 17.2662C26.9067 17.605 26.7052 17.9136 26.4494 18.174C26.1937 18.4344 25.8888 18.6415 25.5524 18.7833C25.2161 18.925 24.855 18.9987 24.49 19H23.74C23.3749 18.9948 23.0144 18.9177 22.6791 18.7731C22.3438 18.6286 22.0403 18.4194 21.7859 18.1576C21.5314 17.8957 21.3311 17.5863 21.1962 17.2469C21.0614 16.9076 20.9947 16.5451 21 16.18V14.84C21 14.5748 21.1054 14.3204 21.2929 14.1329C21.4804 13.9454 21.7348 13.84 22 13.84H26.41C26.6311 13.8477 26.8408 13.9403 26.9954 14.0986C27.1499 14.257 27.2376 14.4687 27.24 14.69Z" fill="#575756"/>
<path d="M29.33 16.2V14.69C29.33 14.6582 29.3426 14.6276 29.3651 14.6051C29.3876 14.5826 29.4182 14.57 29.45 14.57H33.86C33.9316 14.57 34.0003 14.5984 34.0509 14.6491C34.1015 14.6997 34.13 14.7684 34.13 14.84V16.18C34.13 16.7104 33.9193 17.2191 33.5442 17.5942C33.1691 17.9693 32.6604 18.18 32.13 18.18H31.39C31.124 18.188 30.8591 18.1428 30.6108 18.0472C30.3625 17.9515 30.1358 17.8072 29.944 17.6228C29.7521 17.4384 29.599 17.2176 29.4936 16.9733C29.3881 16.729 29.3325 16.4661 29.33 16.2ZM28.59 14.69V16.2C28.5847 16.5658 28.6522 16.929 28.7885 17.2685C28.9248 17.608 29.1273 17.917 29.3841 18.1775C29.6409 18.4381 29.947 18.6449 30.2845 18.7861C30.622 18.9273 30.9842 19 31.35 19H32.09C32.8273 19 33.5344 18.7071 34.0558 18.1858C34.5771 17.6644 34.87 16.9573 34.87 16.22V14.84C34.87 14.5748 34.7646 14.3204 34.5771 14.1329C34.3896 13.9454 34.1352 13.84 33.87 13.84H29.45C29.2236 13.84 29.0064 13.9292 28.8454 14.0883C28.6844 14.2475 28.5926 14.4636 28.59 14.69Z" fill="#575756"/>
<path d="M21.33 15.42H19.06L18.84 14.67H21.33V15.42Z" fill="#575756"/>
<path d="M34.5 15.42H36.77L36.99 14.67H34.5V15.42Z" fill="#575756"/>
<path d="M28.77 14.67H27.07V15.42H28.77V14.67Z" fill="#575756"/>
<path d="M22.71 14.94L22.08 15.6V16.18C22.0815 16.4341 22.1432 16.6843 22.26 16.91L24.15 14.91L22.71 14.94Z" fill="#F6F6F6"/>
<path d="M30.29 14.94L29.66 15.6V16.18C29.6615 16.4341 29.7232 16.6843 29.84 16.91L31.73 14.91L30.29 14.94Z" fill="#F6F6F6"/>
<path d="M24.61 72.49H13.07C7.07 70.62 0.0699997 60.65 0.0699997 60.56V60.48H0.12L7.95 55.39C8.59 56 24.08 70.88 24.61 72.49Z" fill="white"/>
<path d="M30.78 66.2C30.171 66.4249 29.5413 66.589 28.9 66.69C27.8538 66.8485 26.798 66.9354 25.74 66.95C25.54 66.95 26.9 68.23 27.36 68.3C27.9583 68.4101 28.5717 68.4101 29.17 68.3C29.91 68.18 31.1 68.15 31.55 67.54C31.86 67.12 31.87 66.42 31.55 66.22C31.3049 66.117 31.0301 66.1099 30.78 66.2Z" fill="#F2C799"/>
<path d="M25.74 67L30.74 68.4L35.66 71.34L26.66 71.11C25.18 71.84 23.48 71.52 21.72 71.59C21.4448 71.6041 21.1708 71.5445 20.9262 71.4174C20.6817 71.2904 20.4754 71.1004 20.3287 70.8671C20.182 70.6338 20.1002 70.3656 20.0916 70.0902C20.083 69.8147 20.1481 69.542 20.28 69.3C21.26 67.49 23.49 67.43 25.74 67Z" fill="#FFD2A1"/>
<path d="M33.35 68.73L38.06 47.26C38.1871 46.7412 38.4789 46.2775 38.8918 45.9385C39.3047 45.5996 39.8163 45.4036 40.35 45.38H69C69.2336 45.3684 69.4666 45.4132 69.6793 45.5104C69.8921 45.6077 70.0783 45.7547 70.2224 45.9389C70.3665 46.1232 70.4642 46.3394 70.5073 46.5693C70.5504 46.7992 70.5376 47.0361 70.47 47.26L65.77 68.73C65.6413 69.2508 65.348 69.716 64.9335 70.0566C64.5191 70.3971 64.0058 70.5948 63.47 70.62H34.83C34.5958 70.6293 34.3627 70.5827 34.15 70.4842C33.9373 70.3858 33.751 70.2382 33.6065 70.0536C33.462 69.8691 33.3634 69.6529 33.3188 69.4227C33.2742 69.1926 33.2849 68.9552 33.35 68.73Z" fill="#3C3C3B"/>
<path d="M35.84 70.62H64.44C64.9763 70.5963 65.4904 70.3993 65.9051 70.0585C66.3199 69.7177 66.6128 69.2515 66.74 68.73L71.44 47.26C71.5066 47.0386 71.5197 46.8045 71.4781 46.577C71.4366 46.3495 71.3416 46.1352 71.201 45.9516C71.0603 45.768 70.8781 45.6205 70.6693 45.5211C70.4606 45.4217 70.2311 45.3734 70 45.38H41.36C40.8263 45.4036 40.3147 45.5996 39.9018 45.9385C39.4889 46.2775 39.1971 46.7411 39.07 47.26L34.36 68.73C34.2949 68.9552 34.2842 69.1926 34.3288 69.4227C34.3734 69.6528 34.472 69.8691 34.6165 70.0536C34.761 70.2382 34.9473 70.3857 35.16 70.4842C35.3727 70.5827 35.6058 70.6292 35.84 70.62Z" fill="#575756"/>
<path d="M51.67 58C51.6032 58.2299 51.5921 58.4723 51.6374 58.7073C51.6828 58.9423 51.7833 59.1632 51.9308 59.3517C52.0783 59.5402 52.2685 59.6909 52.4857 59.7915C52.7029 59.892 52.9408 59.9395 53.18 59.93C53.7275 59.9049 54.2522 59.7034 54.6757 59.3556C55.0993 59.0077 55.399 58.5322 55.53 58C55.5998 57.7684 55.6126 57.5233 55.5672 57.2856C55.5218 57.048 55.4196 56.8248 55.2693 56.6352C55.119 56.4456 54.9251 56.2952 54.704 56.1968C54.483 56.0984 54.2415 56.0549 54 56.07C53.456 56.0993 52.9358 56.3027 52.5163 56.6503C52.0967 56.9978 51.8 57.471 51.67 58Z" fill="white"/>
<path d="M15.42 72.48H23.18H62.65V70.62H15.42V72.48Z" fill="#575756"/>
<path d="M62.65 70.62H33.43V72.49H62.65V70.62Z" fill="#3C3C3B"/>
</g>
<defs>
<clipPath id="clip0">
<rect width="71.49" height="72.49" fill="white"/>
</clipPath>
</defs>
</svg>
