<svg width="56" height="69" viewBox="0 0 56 69" fill="none" xmlns="http://www.w3.org/2000/svg">
<path d="M40.5782 49.985L41.9751 49.6092L46.0571 64.8435C46.2586 65.5954 45.5492 66.273 44.8073 66.0371L39.0638 64.2114L35.0029 68.6645C34.4783 69.2397 33.5252 69.0078 33.3236 68.2559L29.4838 53.9292L40.5782 49.985Z" fill="#E94E1B"/>
<path d="M14.7966 50.007L25.8475 53.9461L22.0132 68.2556C21.8117 69.0076 20.8585 69.2396 20.334 68.6644L16.2732 64.2114L10.5296 66.037C9.78754 66.2728 9.07814 65.5953 9.27971 64.8432L13.3588 49.6231C13.3588 49.6232 14.7966 50.007 14.7966 50.007Z" fill="#E94E1B"/>
<path d="M47.4699 48.132L40.8332 49.9164C40.6662 49.9612 40.514 50.0493 40.3918 50.1717L35.5363 55.0354C35.2877 55.2844 34.9251 55.3819 34.5851 55.2911L27.9453 53.5181C27.7782 53.4735 27.6023 53.4736 27.4354 53.5185L20.7987 55.3028C20.4589 55.3942 20.096 55.2973 19.847 55.0487L14.9834 50.1932C14.861 50.071 14.7086 49.9833 14.5415 49.9387L7.90174 48.1657C7.5618 48.0749 7.29596 47.8096 7.20461 47.4698L5.42026 40.8332C5.37539 40.6662 5.28727 40.514 5.16493 40.3918L0.30125 35.5363C0.0522524 35.2877 -0.0452985 34.9251 0.0455156 34.5851L1.81855 27.9453C1.86315 27.7782 1.86301 27.6023 1.81814 27.4354L0.0337931 20.7987C-0.05756 20.4589 0.0393176 20.096 0.287911 19.847L5.14337 14.9834C5.26557 14.861 5.35329 14.7086 5.39789 14.5416L7.17092 7.90175C7.26173 7.5618 7.52704 7.29596 7.86685 7.20461L14.5036 5.42026C14.6705 5.37539 14.8228 5.28727 14.945 5.16493L19.8004 0.30125C20.049 0.0522523 20.4116 -0.0452987 20.7517 0.0455154L27.3915 1.81855C27.5586 1.86315 27.7344 1.86301 27.9013 1.81814L34.538 0.0337931C34.8778 -0.05756 35.2407 0.0393174 35.4897 0.287911L40.3534 5.14337C40.4757 5.26558 40.6281 5.35329 40.7952 5.39789L47.435 7.17092C47.7749 7.26174 48.0408 7.52704 48.1321 7.86685L49.9165 14.5036C49.9613 14.6705 50.0495 14.8228 50.1718 14.945L55.0355 19.8004C55.2845 20.049 55.382 20.4116 55.2912 20.7517L53.5182 27.3915C53.4736 27.5586 53.4737 27.7344 53.5186 27.9013L55.3029 34.538C55.3943 34.8779 55.2974 35.2407 55.0488 35.4897L50.1934 40.3534C50.0712 40.4757 49.9834 40.6281 49.9388 40.7952L48.1658 47.435C48.075 47.7749 47.8098 48.0406 47.4699 48.132Z" fill="#006F82"/>
<path d="M27.6684 48.7759C39.3257 48.7759 48.7759 39.3257 48.7759 27.6683C48.7759 16.011 39.3257 6.56079 27.6684 6.56079C16.011 6.56079 6.56082 16.011 6.56082 27.6683C6.56082 39.3257 16.011 48.7759 27.6684 48.7759Z" fill="white"/>
<path d="M36.1625 35.9008H37.2449C38.4406 35.9008 39.4098 36.87 39.4098 38.0656C39.4098 39.2613 38.4406 40.2305 37.2449 40.2305H25.6338C25.049 40.2305 24.4833 40.0324 24.0192 39.6766C22.7954 38.7381 21.5003 38.5394 19.9261 38.4459V24.6797C23.6281 20.45 28.3194 20.0525 27.9911 13.7319C27.9342 12.6382 28.8058 11.7198 29.901 11.7198C30.7387 11.7198 31.4835 12.2635 31.7281 13.0648C32.7216 16.3216 32.9701 19.5537 31.6584 22.9117H39.5753C40.7709 22.9117 41.7401 23.8809 41.7401 25.0765C41.7401 26.2722 40.7709 27.2414 39.5753 27.2414H36.8821H38.8421C40.0378 27.2414 41.007 28.2106 41.007 29.4062C41.007 30.6019 40.0378 31.5711 38.8421 31.5711H36.8821H38.1225C39.3182 31.5711 40.2874 32.5403 40.2874 33.7359C40.2874 34.9316 39.3182 35.9008 38.1225 35.9008H36.1625Z" fill="#FFF3DE"/>
<path d="M19.9261 23.1924V24.6798L20.6297 25.2524V37.6706L19.9261 38.4459V39.818C19.9261 40.362 19.4851 40.803 18.9411 40.803H11.1453C8.27471 37.1978 6.5607 32.633 6.5607 27.6685C6.5607 25.7802 6.80835 23.9493 7.27414 22.2073H18.9409C19.4851 22.2073 19.9261 22.6483 19.9261 23.1924Z" fill="#575756"/>
<path d="M36.1625 35.9008H37.2449C38.4406 35.9008 39.4098 36.87 39.4098 38.0656C39.4098 39.2613 38.4406 40.2305 37.2449 40.2305H25.6338C25.049 40.2305 24.4833 40.0324 24.0192 39.6766C22.7954 38.7381 21.5003 38.5394 19.9261 38.4459V24.6797C23.6281 20.45 28.3194 20.0525 27.9911 13.7319C27.9342 12.6382 28.8058 11.7198 29.901 11.7198C30.7387 11.7198 31.4835 12.2635 31.7281 13.0648C32.7216 16.3216 32.9701 19.5537 31.6584 22.9117H39.5753C40.7709 22.9117 41.7401 23.8809 41.7401 25.0765C41.7401 26.2722 40.7709 27.2414 39.5753 27.2414H36.8821H38.8421C40.0378 27.2414 41.007 28.2106 41.007 29.4062C41.007 30.6019 40.0378 31.5711 38.8421 31.5711H36.8821H38.1225C39.3182 31.5711 40.2874 32.5403 40.2874 33.7359C40.2874 34.9316 39.3182 35.9008 38.1225 35.9008H36.1625Z" fill="#FFD2A1"/>
<path d="M32.5265 19.0694C31.0856 20.749 28.8965 21.8479 26.8679 23.8368C26.3598 24.3349 26.0697 25.0143 26.0697 25.7257V36.1139C26.0697 37.3375 26.897 38.4201 28.087 38.7043C29.0558 38.9356 29.9319 39.3682 30.7897 40.2303H25.6335C25.049 40.2303 24.4833 40.0324 24.0194 39.6768C22.7954 38.7388 21.5002 38.5398 19.9263 38.4461V24.6801C23.6308 20.4473 28.3262 20.0524 27.99 13.7184C27.933 12.6301 28.8106 11.72 29.9006 11.72C30.3192 11.72 30.7159 11.8561 31.0371 12.0921C31.3583 12.3282 31.6059 12.6634 31.7278 13.0645C32.3379 15.0638 32.6671 17.0535 32.5265 19.0694Z" fill="#FFD2A1"/>
<path d="M42.0369 52.5067L36.6788 57.874C36.4303 58.1229 36.3334 58.4852 36.4244 58.8249L38.1391 65.2247L35.0027 68.6645C34.4782 69.2398 33.5249 69.0078 33.3235 68.2558L29.4837 53.9293L34.5847 55.2913C34.9251 55.3814 35.2883 55.2843 35.5359 55.0352L40.392 50.1721C40.5145 50.0496 40.6665 49.9609 40.8338 49.9159L41.9751 49.6091L42.704 52.3278L42.0369 52.5067Z" fill="#E94E1B"/>
<path d="M25.8475 53.9464L25.006 57.0859L19.7937 58.4886C19.5569 58.5523 19.3043 58.4848 19.1308 58.3116C18.7574 57.9386 18.1203 58.1095 17.9836 58.6193L16.4362 64.3919L16.2731 64.2118L10.5296 66.0375C9.78754 66.2733 9.07814 65.5958 9.27971 64.8437L13.3588 49.6236L14.5422 49.9388C14.7082 49.9838 14.8617 50.0711 14.9827 50.1934L19.8473 55.0495C20.0964 55.2972 20.4594 55.3943 20.7986 55.3029L25.8475 53.9464Z" fill="#E94E1B"/>
</svg>
